<svg id="Layer_1" data-name="Layer 1" xmlns="http://www.w3.org/2000/svg" xmlns:xlink="http://www.w3.org/1999/xlink" width="3600.0005" height="2102.2305" viewBox="0 0 3600.0005 2102.2305"><defs><style>.cls-1,.cls-2{fill:none;}.cls-1{clip-rule:evenodd;}.cls-3{clip-path:url(#clip-path);}.cls-4{fill:url(#linear-gradient);}.cls-5{clip-path:url(#clip-path-2);}.cls-6{fill:url(#linear-gradient-2);}.cls-7{clip-path:url(#clip-path-3);}.cls-8{fill:url(#linear-gradient-3);}.cls-9{clip-path:url(#clip-path-4);}.cls-10{fill:url(#linear-gradient-4);}.cls-11{clip-path:url(#clip-path-5);}.cls-12{fill:url(#linear-gradient-5);}.cls-13{clip-path:url(#clip-path-6);}.cls-14{fill:url(#linear-gradient-6);}.cls-15{clip-path:url(#clip-path-7);}.cls-16{fill:url(#linear-gradient-7);}.cls-17{clip-path:url(#clip-path-8);}.cls-18{fill:url(#linear-gradient-8);}.cls-19{clip-path:url(#clip-path-9);}.cls-20{fill:url(#linear-gradient-9);}.cls-21{clip-path:url(#clip-path-10);}.cls-22{fill:url(#linear-gradient-10);}.cls-23{clip-path:url(#clip-path-11);}.cls-24{fill:url(#linear-gradient-11);}.cls-25{clip-path:url(#clip-path-12);}.cls-26{fill:url(#linear-gradient-12);}.cls-27{clip-path:url(#clip-path-13);}.cls-28{fill:url(#linear-gradient-13);}.cls-29{clip-path:url(#clip-path-14);}.cls-30{fill:url(#linear-gradient-14);}.cls-31{clip-path:url(#clip-path-15);}.cls-32{fill:url(#linear-gradient-15);}.cls-33,.cls-34{fill:#1a47b6;}.cls-33,.cls-35{fill-rule:evenodd;}.cls-35{fill:#e2e7fd;}.cls-36{clip-path:url(#clip-path-16);}.cls-37{fill:url(#linear-gradient-16);}</style><clipPath id="clip-path"><path class="cls-1" d="M2825.39,1098.2548l-48.0341-9.7968a45.6526,45.6526,0,0,1-36.5264-41.481,472.6547,472.6547,0,0,0-22.3184-114.853,45.6857,45.6857,0,0,1,18.4209-52.1524l40.8477-27.1127a46.0413,46.0413,0,0,0,13.1152-63.7769l-51.8125-78.3262a46.0742,46.0742,0,0,0-63.8359-12.9887l-40.9092,27.038a45.6787,45.6787,0,0,1-55.206-3.5039,471.083,471.083,0,0,0-96.9522-65.4839,45.5164,45.5164,0,0,1-23.7773-49.8779l9.7549-48.0312a46.047,46.047,0,0,0-35.9024-54.3233l-92.0234-18.7563a46.0393,46.0393,0,0,0-54.3194,35.895l-9.7988,48.0288a45.6935,45.6935,0,0,1-41.4453,36.5845,472.6677,472.6677,0,0,0-114.8115,22.2446,45.6355,45.6355,0,0,1-52.2168-18.3994l-27.042-40.8994a45.9518,45.9518,0,0,0-63.7735-12.9771l-78.3584,51.7564a46.0665,46.0665,0,0,0-12.99,63.8252l27.0342,40.9033a45.5852,45.5852,0,0,1-3.544,55.19,477.3284,477.3284,0,0,0-65.4951,96.9556,45.5577,45.5577,0,0,1-49.8281,23.8535l-48.0244-9.8184a46.0392,46.0392,0,0,0-54.3193,35.9112l-18.7623,92.0068a46.07,46.07,0,0,0,35.9175,54.334l48.0049,9.7881a45.7148,45.7148,0,0,1,36.5811,41.4941,470.0524,470.0524,0,0,0,22.2461,114.7656,45.7157,45.7157,0,0,1-18.3438,52.253l-40.9463,27.0107a46.0408,46.0408,0,0,0-12.9922,63.8155l51.7256,78.3056a46.1338,46.1338,0,0,0,63.877,13.0108l40.8457-27.0655a45.6531,45.6531,0,0,1,55.248,3.5655,471.75,471.75,0,0,0,96.9121,65.4316,45.6447,45.6447,0,0,1,23.877,49.9014l-9.791,48.0156a45.9787,45.9787,0,0,0,35.8994,54.3193l92.0107,18.8155a46.1911,46.1911,0,0,0,54.34-35.9639l9.7519-48.0313a45.7279,45.7279,0,0,1,41.5313-36.5693,472.616,472.616,0,0,0,114.7441-22.2441,45.6762,45.6762,0,0,1,52.1953,18.3759l27.0215,40.9053a46.1139,46.1139,0,0,0,63.8623,13.0527l78.3115-51.8291a46.0062,46.0062,0,0,0,13.0108-63.8173l-27.0547-40.9112a45.6963,45.6963,0,0,1,3.5019-55.2119,465.8938,465.8938,0,0,0,65.4893-96.9258,45.5352,45.5352,0,0,1,49.8359-23.8086l48.0918,9.77a46.0091,46.0091,0,0,0,54.3145-35.9023l18.7471-92.0156a45.9491,45.9491,0,0,0-35.9122-54.27M2104.123,922.1079c86.7666-89.9033,229.9834-92.45,319.8907-5.6865,89.9052,86.767,92.4482,229.9848,5.6816,319.8891-86.76,89.9053-229.9775,92.45-319.8828,5.6846C2019.9053,1155.2314,2017.3574,1012.0141,2104.123,922.1079Z"/></clipPath><linearGradient id="linear-gradient" x1="2151.6718" y1="1377.1376" x2="2787.993" y2="-267.5841" gradientUnits="userSpaceOnUse"><stop offset="0" stop-color="#9bd2f0"/><stop offset="1" stop-color="#fff"/></linearGradient><clipPath id="clip-path-2"><path class="cls-1" d="M1673.2446,1434.0937l-29.6093-18.7236a32.6258,32.6258,0,0,1-13.8926-36.98,337.6834,337.6834,0,0,0,14.2051-82.4033,32.6512,32.6512,0,0,1,25.53-30.1758l34.17-7.7637a32.91,32.91,0,0,0,24.9341-39.292l-14.7636-65.4726a32.9288,32.9288,0,0,0-39.3623-24.8633l-34.19,7.6953a32.647,32.647,0,0,1-36.0015-16.3379,336.7942,336.7942,0,0,0-48.1816-68.3379,32.5258,32.5258,0,0,1-3.2422-39.3559l18.6953-29.6211a32.9094,32.9094,0,0,0-10.22-45.4024l-56.7353-35.8628a32.9,32.9,0,0,0-45.3946,10.2134l-18.7241,29.6084a32.6669,32.6669,0,0,1-36.9717,13.9395,337.7592,337.7592,0,0,0-82.3569-14.2456,32.6146,32.6146,0,0,1-30.228-25.5328l-7.7007-34.1845a32.8391,32.8391,0,0,0-39.3223-24.8408L1178.4,870.8711a32.9238,32.9238,0,0,0-24.8618,39.3559l7.6968,34.1885a32.5815,32.5815,0,0,1-16.3643,35.9766,341.258,341.258,0,0,0-68.3428,48.1826,32.5612,32.5612,0,0,1-39.3442,3.3066l-29.5991-18.7344a32.9,32.9,0,0,0-45.4024,10.2222l-35.8638,56.7236a32.9285,32.9285,0,0,0,10.2227,45.4131l29.5977,18.711a32.6715,32.6715,0,0,1,13.9253,37,335.8815,335.8815,0,0,0-14.2354,82.3291,32.6694,32.6694,0,0,1-25.501,30.2656l-34.2109,7.6641a32.9086,32.9086,0,0,0-24.8618,39.35l14.7124,65.4394a32.9676,32.9676,0,0,0,39.3838,24.8867l34.1528-7.73a32.6325,32.6325,0,0,1,36.0171,16.3886,337.1221,337.1221,0,0,0,48.166,68.295,32.6111,32.6111,0,0,1,3.3022,39.3945l-18.7133,29.6055a32.8605,32.8605,0,0,0,10.2148,45.3964l56.7129,35.8995a33.0073,33.0073,0,0,0,45.4282-10.251l18.6939-29.624a32.6865,32.6865,0,0,1,37.0224-13.9082,337.6609,337.6609,0,0,0,82.314,14.2275,32.6535,32.6535,0,0,1,30.2192,25.5117l7.6827,34.1836a32.9568,32.9568,0,0,0,39.3662,24.915l65.4692-14.7793a32.8754,32.8754,0,0,0,24.8726-39.3417l-7.7061-34.1983a32.6616,32.6616,0,0,1,16.3369-36.0068,333.0073,333.0073,0,0,0,68.335-48.1592,32.5443,32.5443,0,0,1,39.3374-3.2774l29.6592,18.7208a32.874,32.874,0,0,0,45.3921-10.22l35.8584-56.7314a32.84,32.84,0,0,0-10.2408-45.3682m-437.2954-300.5654a161.6849,161.6849,0,1,1-77.2993,215.1933A161.6839,161.6839,0,0,1,1235.9492,1133.5283Z"/></clipPath><linearGradient id="linear-gradient-2" x1="1222.7225" y1="1492.2141" x2="1676.4192" y2="319.5102" xlink:href="#linear-gradient"/><clipPath id="clip-path-3"><path class="cls-1" d="M1768.24,664.0561l-20.4028-9.9726a21.15,21.15,0,0,1-11.5683-22.8453,218.9858,218.9858,0,0,0,3.3242-54.1025,21.1653,21.1653,0,0,1,14.3178-21.25l21.4678-7.42a21.3327,21.3327,0,0,0,13.2881-27.0811l-14.145-41.1464a21.3467,21.3467,0,0,0-27.1231-13.2359l-21.4873,7.3765a21.1607,21.1607,0,0,1-24.353-7.9795,218.3551,218.3551,0,0,0-35.8809-40.6275,21.0868,21.0868,0,0,1-4.8745-25.1313l9.9517-20.41a21.3316,21.3316,0,0,0-9.7974-28.5327l-39.0957-19.0957a21.3276,21.3276,0,0,0-28.5293,9.7925l-9.97,20.4033a21.1733,21.1733,0,0,1-22.8374,11.5967,219.0014,219.0014,0,0,0-54.0767-3.353,21.141,21.141,0,0,1-21.2841-14.315l-7.3809-21.4824A21.2854,21.2854,0,0,0,1450.689,322.02l-41.1543,14.1147a21.3406,21.3406,0,0,0-13.2359,27.1182l7.378,21.4849a21.1237,21.1237,0,0,1-8,24.3413,221.146,221.146,0,0,0-40.63,35.8808,21.108,21.108,0,0,1-25.1182,4.9151l-20.3994-9.9781a21.3262,21.3262,0,0,0-28.5317,9.7974L1261.9,488.7837a21.3419,21.3419,0,0,0,9.7988,28.538l20.3955,9.9649a21.1809,21.1809,0,0,1,11.59,22.8569,217.7354,217.7354,0,0,0-3.3482,54.0581,21.178,21.178,0,0,1-14.2925,21.3042l-21.5019,7.3609a21.331,21.331,0,0,0-13.2359,27.1137l14.1094,41.126a21.3722,21.3722,0,0,0,27.1377,13.2515l21.4614-7.3975a21.1547,21.1547,0,0,1,24.3672,8.0132,218.6987,218.6987,0,0,0,35.8667,40.6,21.1371,21.1371,0,0,1,4.9151,25.1509L1369.2,801.1235a21.3044,21.3044,0,0,0,9.7939,28.5317l39.084,19.12a21.3977,21.3977,0,0,0,28.5474-9.8184l9.95-20.4121a21.1872,21.1872,0,0,1,22.8725-11.58,218.9437,218.9437,0,0,0,54.0479,3.3442,21.168,21.168,0,0,1,21.2764,14.3018l7.3691,21.4824a21.3644,21.3644,0,0,0,27.1279,13.271l41.1416-14.1553a21.3109,21.3109,0,0,0,13.2437-27.11l-7.3843-21.4912a21.173,21.173,0,0,1,7.98-24.3569,215.8074,215.8074,0,0,0,40.626-35.8677,21.0987,21.0987,0,0,1,25.1171-4.8941l20.4356,9.9663a21.313,21.313,0,0,0,28.5268-9.7963l19.0923-39.0933a21.2863,21.2863,0,0,0-9.8091-28.5093M1465.1973,501.313A104.811,104.811,0,1,1,1430.61,645.4458,104.8121,104.8121,0,0,1,1465.1973,501.313Z"/></clipPath><linearGradient id="linear-gradient-3" x1="1482.0496" y1="733.3761" x2="1691.4338" y2="-54.3666" xlink:href="#linear-gradient"/><clipPath id="clip-path-4"><path class="cls-2" d="M1045.02,1022.9257h140.4722V840.1084Zm120.8472,290.2374v-141.504h-284.04v-147.7l336.7168-431.7407h112.5835v430.707h90.8912v148.7334h-90.8912v141.504Z"/></clipPath><linearGradient id="linear-gradient-4" x1="1151.9228" y1="1112.4709" x2="1151.9228" y2="-491.8106" gradientUnits="userSpaceOnUse"><stop offset="0" stop-color="#e8546b"/><stop offset="1" stop-color="#fff"/></linearGradient><clipPath id="clip-path-5"><path class="cls-2" d="M1865.5684,948.7368c0-64.4126-22.9639-210.8277-103.1905-210.749-77.5166.0771-104.2251,144.4819-104.2251,210.749,0,67.4468,16.5708,213.2466,104.2251,213.9292,82.3789.6406,103.1905-148.3052,103.1905-213.9292m166.14,0q0,78.7954-20.6387,145.0522-20.6382,66.2594-56.7548,114.6114t-85.1338,75.2119q-49.018,26.8608-106.8028,26.8613-57.7881,0-107.3193-26.8613-49.533-26.8623-85.65-75.2119-36.1179-48.3516-56.2383-114.6114-20.1225-66.2549-20.1235-145.0522,0-78.7932,20.1235-145.0523,20.12-66.2592,56.2383-114.6084,36.1194-48.3514,85.65-75.8095,49.5307-27.46,107.3193-27.46t106.8028,27.46q49.0151,27.4576,85.1338,75.8095,36.1172,48.3493,56.7548,114.6084T2031.708,948.7368Z"/></clipPath><linearGradient id="linear-gradient-5" x1="1762.3772" y1="1108.746" x2="1762.3772" y2="-503.8108" xlink:href="#linear-gradient-4"/><clipPath id="clip-path-6"><path class="cls-2" d="M2276.2012,1022.9257h140.4707V840.1084Zm120.8467,290.2374v-141.504H2113.0068v-147.7l336.7178-431.7407h112.584v430.707h90.8906v148.7334h-90.8906v141.504Z"/></clipPath><linearGradient id="linear-gradient-6" x1="2383.103" y1="1112.4709" x2="2383.103" y2="-491.8106" xlink:href="#linear-gradient-4"/><clipPath id="clip-path-7"><path class="cls-2" d="M2024.8965,1594.9853H2055.42q5.9019,0,10.1758-5.5976,4.2729-5.5942,4.2715-14.3448,0-8.953-4.8838-14.2431-4.8809-5.2924-10.5811-5.291h-29.5058Zm-33.375,75.7012V1526.2041h65.12a41.9113,41.9113,0,0,1,18.8232,4.2734,49.9816,49.9816,0,0,1,14.9571,11.1934,52.3547,52.3547,0,0,1,9.8691,15.6679,46.5929,46.5929,0,0,1,3.5606,17.7041,50.687,50.687,0,0,1-1.627,12.9219,50.0889,50.0889,0,0,1-4.6826,11.7,44.1666,44.1666,0,0,1-17.2959,17.2988l31.7461,53.7227h-37.6465l-27.6758-46.6h-21.7734v46.6Zm-129.0166-72.0391a54.0924,54.0924,0,0,0,2.44,16.18,43.2143,43.2143,0,0,0,7.2256,13.9395,35.5572,35.5572,0,0,0,11.9043,9.7666,35.0661,35.0661,0,0,0,16.28,3.665,34.4639,34.4639,0,0,0,16.6865-3.8662,36.2172,36.2172,0,0,0,11.8027-10.0732,44.0028,44.0028,0,0,0,7.02-14.042,55.5758,55.5758,0,0,0,2.3389-15.9746,54.1058,54.1058,0,0,0-2.44-16.1788,41.0255,41.0255,0,0,0-7.3272-13.8369,36.3547,36.3547,0,0,0-11.9023-9.5664,35.3264,35.3264,0,0,0-16.1787-3.56,34.6133,34.6133,0,0,0-16.586,3.7636,37.0381,37.0381,0,0,0-11.8027,9.8721,41.6945,41.6945,0,0,0-7.123,13.9394A55.4571,55.4571,0,0,0,1862.5049,1598.6474Zm37.6465,73.2608a67.2266,67.2266,0,0,1-29.3047-6.3067,72.2125,72.2125,0,0,1-22.5869-16.5869,75.5769,75.5769,0,0,1-14.5518-23.5049,74.0674,74.0674,0,0,1-5.1875-27.2675,72.14,72.14,0,0,1,5.3916-27.4737,72.8448,72.8448,0,0,1,37.9522-39.375,69.1056,69.1056,0,0,1,28.8974-6.0039,67.2,67.2,0,0,1,29.3047,6.31,71.4574,71.4574,0,0,1,22.5869,16.6865,75.2377,75.2377,0,0,1,14.4473,23.6045,74.257,74.257,0,0,1,5.09,26.8623,72.137,72.137,0,0,1-5.3935,27.4727,73.1194,73.1194,0,0,1-37.7481,39.4785A68.13,68.13,0,0,1,1900.1514,1671.9082Zm-166.2583-76.9229h30.5239q5.9033,0,10.1753-5.5976,4.2729-5.5942,4.2729-14.3448,0-8.953-4.8838-14.2431-4.8829-5.2924-10.581-5.291h-29.5073Zm-33.375,75.7012V1526.2041h65.1206a41.9113,41.9113,0,0,1,18.8232,4.2734,49.9918,49.9918,0,0,1,14.958,11.1934,52.353,52.353,0,0,1,9.8692,15.6679,46.5757,46.5757,0,0,1,3.5605,17.7041,50.687,50.687,0,0,1-1.6269,12.9219,50.0935,50.0935,0,0,1-4.6827,11.7,44.168,44.168,0,0,1-17.2954,17.2988l31.7456,53.7227h-37.6479l-27.6753-46.6h-21.7739v46.6Zm-102.9693-75.7012h30.5249q5.9012,0,10.1743-5.5976,4.2731-5.5942,4.274-14.3448,0-8.953-4.8848-14.2431-4.8831-5.2924-10.581-5.291h-29.5074Zm-33.3735,75.7012V1526.2041h65.1186a41.9041,41.9041,0,0,1,18.8233,4.2734,49.994,49.994,0,0,1,14.9585,11.1934,52.3839,52.3839,0,0,1,9.87,15.6679,46.6208,46.6208,0,0,1,3.56,17.7041,50.3328,50.3328,0,0,1-6.3081,24.6221,44.1952,44.1952,0,0,1-17.2969,17.2988l31.7451,53.7227H1646.998l-27.6752-46.6h-21.774v46.6Zm-20.3511-29.3018v29.3018H1442.2793V1526.2041h99.7139v29.3047h-66.34v28.08h56.9785v27.0684h-56.9785v30.7275Z"/></clipPath><linearGradient id="linear-gradient-7" x1="1777.1357" y1="1631.1227" x2="1777.1357" y2="1239.5151" xlink:href="#linear-gradient-4"/><clipPath id="clip-path-8"><path class="cls-1" d="M1404.834,1392.3164H682.07v-21.8575H1404.834v-5.9531a9.8288,9.8288,0,0,1,9.8-9.8017h9.7983v53.3652h-9.7983a9.8269,9.8269,0,0,1-9.8-9.7988Z"/></clipPath><linearGradient id="linear-gradient-8" x1="1053.2514" y1="1384.5872" x2="1053.2514" y2="1327.9352" gradientUnits="userSpaceOnUse"><stop offset="0" stop-color="#297fce"/><stop offset="1" stop-color="#fdfdfd"/></linearGradient><clipPath id="clip-path-9"><path class="cls-1" d="M1490.6948,1286.3584h107.5811v190.205H1490.8413a68.6935,68.6935,0,0,1-68.4956-68.4941V1354.707a68.5493,68.5493,0,0,1,68.3491-68.3486"/></clipPath><linearGradient id="linear-gradient-9" x1="1510.3108" y1="1409.3636" x2="1510.3108" y2="1021.2389" xlink:href="#linear-gradient-8"/><clipPath id="clip-path-10"><path class="cls-1" d="M1557.0313,1393.3213q-.0506,2.0478-.1177,4.0722.0666-2.0244.1177-4.0722m-22.84-116.6778a4.9829,4.9829,0,0,1,.9224.0918,9.5977,9.5977,0,0,1,1.7671-.1621h51.6108c5.3794,0,1.4517,17.5752,1.4321,22.959L1589.28,1465.48c-.02,5.3838,4.5932,20.8692-.7886,20.8692h-51.6108a9.9658,9.9658,0,0,1-1.5645-.126,5.2761,5.2761,0,0,1-1.125.126c-12.6929,0-22.9834-46.9434-22.9834-104.8545C1511.208,1323.5869,1521.4985,1276.6435,1534.1914,1276.6435Z"/></clipPath><linearGradient id="linear-gradient-10" x1="1552.5464" y1="1416.0027" x2="1552.5196" y2="1251.0311" gradientUnits="userSpaceOnUse"><stop offset="0" stop-color="#022fa0"/><stop offset="0.6782" stop-color="#197bdd"/><stop offset="1" stop-color="#24a1fb"/></linearGradient><clipPath id="clip-path-11"><path class="cls-1" d="M1588.4917,1276.6435c12.6943,0,22.9839,46.9434,22.9839,104.8516,0,57.9111-10.29,104.8545-22.9839,104.8545s-22.9849-46.9434-22.9849-104.8545c0-57.9082,10.29-104.8516,22.9849-104.8516"/></clipPath><linearGradient id="linear-gradient-11" x1="1588.4711" y1="1587.1146" x2="1588.498" y2="1311.3033" gradientUnits="userSpaceOnUse"><stop offset="0" stop-color="#54d0ff"/><stop offset="0.2603" stop-color="#90e0ff"/><stop offset="0.5013" stop-color="#c0eeff"/><stop offset="0.7126" stop-color="#e2f7ff"/><stop offset="0.886" stop-color="#f7fdff"/><stop offset="1" stop-color="#fff"/></linearGradient><clipPath id="clip-path-12"><path class="cls-1" d="M2193.2363,1370.4589h724.69v21.8575H2193.2363v5.9541a9.8285,9.8285,0,0,1-9.8017,9.7988h-9.7989v-53.3652h9.7989a9.83,9.83,0,0,1,9.8017,9.8017Z"/></clipPath><linearGradient id="linear-gradient-12" x1="2545.7808" y1="1384.5872" x2="2545.7808" y2="1299.8363" xlink:href="#linear-gradient-8"/><clipPath id="clip-path-13"><path class="cls-1" d="M2106.7314,1286.3584h-107.582v190.205H2106.585a68.6937,68.6937,0,0,0,68.4951-68.4941V1354.707a68.55,68.55,0,0,0-68.3487-68.3486"/></clipPath><linearGradient id="linear-gradient-13" x1="2087.1147" y1="1409.3636" x2="2087.1147" y2="1021.2389" xlink:href="#linear-gradient-8"/><clipPath id="clip-path-14"><path class="cls-1" d="M2008.9346,1276.5732h51.61a9.6394,9.6394,0,0,1,1.7705.1621,4.9438,4.9438,0,0,1,.918-.0918c12.6943,0,22.9854,46.9434,22.9854,104.8516,0,57.9111-10.2911,104.8545-22.9854,104.8545a5.2933,5.2933,0,0,1-1.125-.126,9.9008,9.9008,0,0,1-1.5635.126h-51.61c-5.3828,0-.7686-15.4854-.79-20.8692l-.6435-165.9482c-.0176-5.3838-3.9473-22.959,1.4336-22.959"/></clipPath><linearGradient id="linear-gradient-14" x1="2044.8909" y1="1416.0043" x2="2044.8641" y2="1251.0307" xlink:href="#linear-gradient-10"/><clipPath id="clip-path-15"><path class="cls-1" d="M2008.9346,1276.6435c-12.6944,0-22.9844,46.9434-22.9844,104.8516,0,57.9111,10.29,104.8545,22.9844,104.8545s22.9853-46.9434,22.9853-104.8545c0-57.9082-10.291-104.8516-22.9853-104.8516"/></clipPath><linearGradient id="linear-gradient-15" x1="2008.9749" y1="1587.1139" x2="2008.9214" y2="1311.303" xlink:href="#linear-gradient-11"/><clipPath id="clip-path-16"><path class="cls-2" d="M2258.748,476.1816V448.0752h22.59v28.1064Zm-41.2089,0V448.0752h22.5879v28.1064Zm-50.1787,1.7241a72.049,72.049,0,0,1-22.7627-3.7065,51.9715,51.9715,0,0,1-18.9668-10.7774l9.8271-16.8994a81.8726,81.8726,0,0,0,16.124,8.7959,40.9585,40.9585,0,0,0,15.0879,3.1035q5.3483,0,8.2764-1.8974a6.1693,6.1693,0,0,0,2.9326-5.5171q0-3.6211-3.707-5.7769t-13.0186-4.5683q-9.1421-2.5876-15.4336-5.0015a43.6405,43.6405,0,0,1-10.2617-5.3452,17.3519,17.3519,0,0,1-5.6865-6.7256,21.48,21.48,0,0,1-1.7266-8.9668,28.1965,28.1965,0,0,1,10.3457-22.2432,36.0188,36.0188,0,0,1,11.4678-6.2075,44.7615,44.7615,0,0,1,14.3975-2.2417,63.8956,63.8956,0,0,1,19.0527,2.7583,47.606,47.606,0,0,1,17.1572,10.0015l-10.69,16.5527a73.0121,73.0121,0,0,0-13.793-7.76,31.511,31.511,0,0,0-11.7265-2.4131,14.8378,14.8378,0,0,0-7.586,1.81,6.7016,6.7016,0,0,0,.2588,11.4678q3.3618,1.8956,12.501,4.1382a158.7642,158.7642,0,0,1,16.293,5.1728,43.6488,43.6488,0,0,1,10.78,5.7769,19.586,19.586,0,0,1,6.0323,7.3281,23.41,23.41,0,0,1,1.8984,9.8291q0,13.45-10.002,21.3814T2167.36,477.9057Zm-98.1163-23.2768a17.0818,17.0818,0,0,0,8.1905-1.9839,21.8244,21.8244,0,0,0,6.4658-5.2593,23.0451,23.0451,0,0,0,4.2246-7.6733,28.9453,28.9453,0,0,0,1.4648-9.2261,25.28,25.28,0,0,0-1.6367-9.2232,23.0476,23.0476,0,0,0-4.4814-7.3295,19.7029,19.7029,0,0,0-6.8975-4.8287,22.0078,22.0078,0,0,0-8.708-1.7236,20.0478,20.0478,0,0,0-10.95,3.3613,21.84,21.84,0,0,0-8.0176,9.0533V438.42a28.5475,28.5475,0,0,0,8.3633,11.5527A18.4374,18.4374,0,0,0,2069.2441,454.6289Zm9.3125,23.2768a35.6958,35.6958,0,0,1-17.9336-4.311,29.632,29.632,0,0,1-11.7246-12.0693V512.91h-27.5908V385.6543h23.9688v14.6562a36.3314,36.3314,0,0,1,12.5009-12.0688,35.2135,35.2135,0,0,1,17.8477-4.3111,38.9032,38.9032,0,0,1,16.8135,3.62,41.0379,41.0379,0,0,1,13.2754,9.9166,46.5169,46.5169,0,0,1,8.7939,14.8276,51.9667,51.9667,0,0,1,3.1914,18.3657,58.08,58.08,0,0,1-2.9316,18.7944,47.088,47.088,0,0,1-8.1035,14.9151,37.7622,37.7622,0,0,1-12.418,9.914A34.5563,34.5563,0,0,1,2078.5566,477.9057Zm-139.5-46.9013q0,10.69,5.6914,17.1572a18.4439,18.4439,0,0,0,14.4844,6.4673,18.2372,18.2372,0,0,0,7.9336-1.7251,19.0938,19.0938,0,0,0,6.293-4.8286,23.1617,23.1617,0,0,0,4.2226-7.501,28.5439,28.5439,0,0,0,1.5538-9.57q0-10.692-5.6924-17.1582a18.2592,18.2592,0,0,0-14.3106-6.4649,18.7227,18.7227,0,0,0-14.3974,6.5523,23.1514,23.1514,0,0,0-4.2246,7.5009A28.5315,28.5315,0,0,0,1939.0566,431.0044Zm20.1758,46.9013a52.8934,52.8934,0,0,1-20.6054-3.7929,44.8676,44.8676,0,0,1-15.26-10.2593,43.3062,43.3062,0,0,1-9.3984-15.0015,51.53,51.53,0,0,1,0-35.6953,43.3154,43.3154,0,0,1,9.3984-15.0015,45.9244,45.9244,0,0,1,15.26-10.3452,51.85,51.85,0,0,1,20.6054-3.8794A51.2151,51.2151,0,0,1,1979.75,387.81a46.1133,46.1133,0,0,1,15.1748,10.3452,44.416,44.416,0,0,1,9.4844,15.0015,49.3732,49.3732,0,0,1,3.2783,17.8477,50.5832,50.5832,0,0,1-3.1914,17.8476,43.3177,43.3177,0,0,1-9.3965,15.0015,44.891,44.891,0,0,1-15.2607,10.2593A52.899,52.899,0,0,1,1959.2324,477.9057ZM1809.041,415.1411a45.8168,45.8168,0,0,0,2.0694,13.708,36.6784,36.6784,0,0,0,6.123,11.813,30.1616,30.1616,0,0,0,10.0869,8.2763,29.7378,29.7378,0,0,0,13.7959,3.1036,29.1871,29.1871,0,0,0,14.1377-3.2774,30.623,30.623,0,0,0,10-8.5356,37.2909,37.2909,0,0,0,5.9512-11.898,47.0553,47.0553,0,0,0,1.98-13.5351,45.7273,45.7273,0,0,0-2.0693-13.708,34.7049,34.7049,0,0,0-6.207-11.7271,30.7849,30.7849,0,0,0-10.0869-8.1035,29.8928,29.8928,0,0,0-13.7061-3.0171,29.336,29.336,0,0,0-14.0547,3.19,31.4,31.4,0,0,0-10.001,8.3623,35.4328,35.4328,0,0,0-6.0371,11.8121A47.1087,47.1087,0,0,0,1809.041,415.1411Zm31.8994,62.0766a56.9831,56.9831,0,0,1-24.8291-5.3452,61.2121,61.2121,0,0,1-19.14-14.0547,64.0147,64.0147,0,0,1-12.33-19.9155,62.7464,62.7464,0,0,1-4.396-23.1064,61.0765,61.0765,0,0,1,4.57-23.2793,61.7334,61.7334,0,0,1,32.1553-33.3658,58.5508,58.5508,0,0,1,24.4873-5.0864,56.9424,56.9424,0,0,1,24.831,5.3452,60.574,60.574,0,0,1,19.14,14.14,63.7223,63.7223,0,0,1,12.2422,20.0014,62.93,62.93,0,0,1,4.3135,22.7618,61.0718,61.0718,0,0,1-4.5723,23.2793,61.9241,61.9241,0,0,1-31.9863,33.4521A57.7063,57.7063,0,0,1,1840.94,477.2177Z"/></clipPath><linearGradient id="linear-gradient-16" x1="2030.792" y1="436.6402" x2="2030.792" y2="181.4002" xlink:href="#linear-gradient"/></defs><g class="cls-3"><rect class="cls-4" x="1667.4639" y="479.7133" width="1198.9521" height="1198.9732"/></g><g class="cls-5"><rect class="cls-6" x="877.2612" y="852.1147" width="855.2964" height="855.3296"/></g><g class="cls-7"><rect class="cls-8" x="1247.4785" y="318.1616" width="545.0029" height="545.0268"/></g><g class="cls-9"><rect class="cls-10" x="881.8271" y="592.2187" width="540.1915" height="720.9444"/></g><g class="cls-11"><rect class="cls-12" x="1493.0464" y="585.8071" width="538.6616" height="724.6665"/></g><g class="cls-13"><rect class="cls-14" x="2113.0068" y="592.2187" width="540.1924" height="720.9444"/></g><g class="cls-15"><rect class="cls-16" x="1442.2793" y="1525.3896" width="669.7129" height="146.5186"/></g><g class="cls-17"><rect class="cls-18" x="682.0703" y="1354.7041" width="742.3623" height="53.3652"/></g><g class="cls-19"><rect class="cls-20" x="1422.3457" y="1286.3584" width="175.9302" height="190.205"/></g><g class="cls-21"><rect class="cls-22" x="1511.208" y="1276.5732" width="82.6655" height="209.7764"/></g><g class="cls-23"><rect class="cls-24" x="1565.5068" y="1276.6435" width="45.9688" height="209.7061"/></g><g class="cls-25"><rect class="cls-26" x="2173.6357" y="1354.7041" width="744.2901" height="53.3652"/></g><g class="cls-27"><rect class="cls-28" x="1999.1494" y="1286.3584" width="175.9307" height="190.205"/></g><g class="cls-29"><rect class="cls-30" x="2003.5518" y="1276.5732" width="82.667" height="209.7764"/></g><g class="cls-31"><rect class="cls-32" x="1985.9502" y="1276.6435" width="45.9697" height="209.7061"/></g><path class="cls-33" d="M1589.4556,1396.5547c2.7451,0,4.9726,7.2294,4.9726,16.1445,0,8.917-2.2275,16.1445-4.9726,16.1445s-4.9712-7.2275-4.9712-16.1445c0-8.9151,2.2256-16.1445,4.9712-16.1445"/><path class="cls-33" d="M1589.4556,1334.1464c2.7451,0,4.9726,7.2276,4.9726,16.1446s-2.2275,16.1455-4.9726,16.1455-4.9712-7.2276-4.9712-16.1455,2.2256-16.1446,4.9712-16.1446"/><path class="cls-33" d="M2007.9248,1401.08c2.7471,0,4.9727,5.2022,4.9727,11.6192,0,6.4189-2.2256,11.6191-4.9727,11.6191-2.7432,0-4.9727-5.2-4.9727-11.6191,0-6.417,2.2295-11.6192,4.9727-11.6192"/><path class="cls-33" d="M2007.9248,1339.23c2.7471,0,4.9727,4.9511,4.9727,11.0615s-2.2256,11.0625-4.9727,11.0625c-2.7432,0-4.9727-4.9522-4.9727-11.0625s2.2295-11.0615,4.9727-11.0615"/><rect class="cls-34" x="1934.9238" y="1401.082" width="72.9541" height="23.2363"/><rect class="cls-34" x="1934.9238" y="1339.2295" width="72.9541" height="22.124"/><path class="cls-35" d="M1934.9238,1401.08c2.7442,0,4.97,5.2022,4.97,11.6192,0,6.4189-2.2256,11.6191-4.97,11.6191-2.747,0-4.9726-5.2-4.9726-11.6191,0-6.417,2.2256-11.6192,4.9726-11.6192"/><path class="cls-35" d="M1934.9238,1339.23c2.7442,0,4.97,4.9511,4.97,11.0615s-2.2256,11.0625-4.97,11.0625c-2.747,0-4.9726-4.9522-4.9726-11.0625s2.2256-11.0615,4.9726-11.0615"/><g class="cls-36"><rect class="cls-37" x="1780.2461" y="353.0644" width="501.0918" height="159.8457"/></g></svg>