<svg xmlns="http://www.w3.org/2000/svg" xmlns:xlink="http://www.w3.org/1999/xlink" width="419.9996mm" height="297.0001mm" viewBox="0 0 1190.55 841.89"><defs><style>.cls-1,.cls-9{fill:none;}.cls-2{fill:#dcd6ea;}.cls-16,.cls-3{fill:#f3c3d1;}.cls-3{opacity:0.5;}.cls-4{fill:#6354a0;}.cls-5{fill:#7a72b2;}.cls-6{clip-path:url(#clip-path);}.cls-12,.cls-21,.cls-22,.cls-7{fill:#fff;}.cls-8{fill:#e9665c;}.cls-9{stroke:#6354a0;stroke-linecap:round;stroke-width:3px;}.cls-22,.cls-9{stroke-miterlimit:10;}.cls-10{fill:#d36849;}.cls-11{fill:#c7421b;}.cls-12{opacity:0.3;}.cls-13{fill:#bcbec0;}.cls-14{fill:#d5cad2;}.cls-15{fill:#ee92a2;}.cls-17{fill:#55576d;}.cls-18{fill:#4b4c5b;}.cls-19{fill:#41475a;}.cls-20{fill:#33364a;}.cls-21{opacity:0.1;}.cls-22{stroke:#dcd6ea;stroke-width:2.5575px;}</style><clipPath id="clip-path"><path class="cls-1" d="M547.8834,711.497c64.9992-21.74,81.32-18.892,154.5868,5.1981,305.1942,100.3473,388.554-223.6126,322.2758-348.7161C886.2952,106.646,710.159,401.08,549.7672,242.4955,346.9873,42,99.2018,226.3713,151.63,511.6119,180.2455,667.2948,312.2154,790.3209,547.8834,711.497Z"/></clipPath></defs><rect class="cls-1" width="1190.55" height="841.89"/><path class="cls-2" d="M547.8834,711.657c64.9992-21.74,81.32-18.892,154.5868,5.1981,305.1942,100.3473,388.554-223.6126,322.2758-348.7161C886.2952,106.806,710.159,401.24,549.7672,242.6555,346.9873,42.16,99.2018,226.5313,151.63,511.7719,180.2455,667.4548,312.2154,790.4809,547.8834,711.657Z"/><circle class="cls-3" cx="595.275" cy="318.6817" r="228.2503" transform="translate(-50.99 514.2627) rotate(-45)"/><path class="cls-4" d="M854.9584,654.0857h-521.59a25.9819,25.9819,0,0,1-25.9521-25.9521V420.9227a25.9819,25.9819,0,0,1,25.9521-25.9521h521.59a25.9819,25.9819,0,0,1,25.9521,25.9521V628.1336A25.9819,25.9819,0,0,1,854.9584,654.0857Zm-521.59-246.2769a13.1291,13.1291,0,0,0-13.114,13.1139V628.1336a13.1291,13.1291,0,0,0,13.114,13.1139h521.59a13.1291,13.1291,0,0,0,13.114-13.1139V420.9227a13.1291,13.1291,0,0,0-13.114-13.1139Z"/><rect class="cls-4" x="355.6157" y="401.3897" width="8.0239" height="334.9588"/><rect class="cls-4" x="407.7989" y="401.3897" width="8.0238" height="246.2769"/><rect class="cls-4" x="459.9836" y="401.3897" width="8.0238" height="246.2769"/><rect class="cls-4" x="512.1667" y="401.3897" width="8.0238" height="246.2769"/><rect class="cls-4" x="564.3514" y="401.3897" width="8.0238" height="246.2769"/><rect class="cls-4" x="616.5345" y="401.3897" width="8.0239" height="246.2769"/><rect class="cls-4" x="668.7192" y="401.3897" width="8.0239" height="246.2769"/><rect class="cls-4" x="720.9024" y="401.3897" width="8.0238" height="246.2769"/><rect class="cls-4" x="773.0871" y="401.3897" width="8.0238" height="246.2769"/><rect class="cls-4" x="825.2702" y="401.3897" width="8.0239" height="334.9588"/><path class="cls-5" d="M849.9955,649.2711h-521.59a25.9819,25.9819,0,0,1-25.9521-25.9521V416.1081a25.9819,25.9819,0,0,1,25.9521-25.9521h521.59a25.9819,25.9819,0,0,1,25.9521,25.9521V623.319A25.9819,25.9819,0,0,1,849.9955,649.2711Zm-521.59-246.2769a13.129,13.129,0,0,0-13.1139,13.1139V623.319a13.129,13.129,0,0,0,13.1139,13.1139h521.59a13.129,13.129,0,0,0,13.1139-13.1139V416.1081a13.129,13.129,0,0,0-13.1139-13.1139Z"/><rect class="cls-5" x="892.3657" y="445.0389" width="10.6599" height="31.2194"/><rect class="cls-5" x="882.6224" y="436.7598" width="12.1241" height="28.6823" transform="translate(1339.7854 -437.5835) rotate(90)"/><rect class="cls-5" x="892.3657" y="559.6549" width="10.6599" height="31.2193"/><rect class="cls-5" x="882.6224" y="551.3758" width="12.1241" height="28.6823" transform="translate(1454.4014 -322.9675) rotate(90)"/><rect class="cls-5" x="350.6528" y="396.5751" width="8.0238" height="339.7734"/><rect class="cls-5" x="402.8359" y="396.5751" width="8.0238" height="246.2769"/><rect class="cls-5" x="455.0206" y="396.5751" width="8.0239" height="246.2769"/><rect class="cls-5" x="507.2038" y="396.5751" width="8.0238" height="246.2769"/><rect class="cls-5" x="559.3885" y="396.5751" width="8.0238" height="246.2769"/><rect class="cls-5" x="611.5716" y="396.5751" width="8.0238" height="246.2769"/><rect class="cls-5" x="663.7563" y="396.5751" width="8.0238" height="246.2769"/><rect class="cls-5" x="715.9394" y="396.5751" width="8.0239" height="246.2769"/><rect class="cls-5" x="768.1241" y="396.5751" width="8.0239" height="246.2769"/><rect class="cls-5" x="820.3073" y="396.5751" width="8.0238" height="339.7734"/><g class="cls-6"><path class="cls-4" d="M1457.4736,394.9706h-521.59a25.9819,25.9819,0,0,0-25.9519,25.952v207.211a25.9819,25.9819,0,0,0,25.9519,25.9521h22.2476v82.2627h8.0237V654.0857h461.6306v82.2627h8.0239V654.0857h21.6643a25.9819,25.9819,0,0,0,25.9522-25.9521V420.9226A25.982,25.982,0,0,0,1457.4736,394.9706Zm-386.9509,12.8381h44.1592V641.2476h-44.1592Zm-8.0239,233.4389h-44.1607V407.8087h44.1607Zm60.207-233.4389h44.1609V641.2476h-44.1609Zm52.1848,0H1219.05V641.2476h-44.1592Zm52.1831,0h44.1609V641.2476h-44.1609Zm52.1846,0h44.1594V641.2476h-44.1594Zm52.1833,0h44.1607V641.2476h-44.1607ZM935.8835,641.2476a13.129,13.129,0,0,1-13.1137-13.114V420.9226a13.129,13.129,0,0,1,13.1137-13.1139h22.2476V641.2476Zm30.2713-233.4389h44.1594V641.2476H966.1548Zm417.4714,233.4389V407.8087h44.1592V641.2476Zm86.9614-13.114a13.1291,13.1291,0,0,1-13.114,13.114h-21.6643V407.8087h21.6643a13.1291,13.1291,0,0,1,13.114,13.1139Z"/><rect class="cls-4" x="890.0397" y="458.0397" width="16.8445" height="33.1674"/><rect class="cls-4" x="890.0397" y="572.6557" width="16.8445" height="33.1673"/><path class="cls-5" d="M1494.8811,445.0388h-16.4182V416.1082a25.9819,25.9819,0,0,0-25.9522-25.9522h-521.59a25.9821,25.9821,0,0,0-25.9522,25.9522V623.3189a25.982,25.982,0,0,0,25.9522,25.9521h22.2475v87.0774h8.0237V649.271h461.6306v87.0774h8.0239V649.271h21.6643a25.9818,25.9818,0,0,0,25.9522-25.9521v-51.54h16.4182v19.0953h10.66V559.6548h-27.0779V457.163h16.4182v19.0953h10.66v-31.22ZM1065.56,402.9942h44.1592V636.4329H1065.56Zm-8.0239,233.4387H1013.375V402.9942h44.1609Zm60.207-233.4387h44.1609V636.4329h-44.1609Zm52.1846,0h44.1594V636.4329h-44.1594Zm52.1831,0h44.1611V636.4329h-44.1611Zm52.1848,0h44.1594V636.4329h-44.1594Zm52.1831,0h44.1609V636.4329h-44.1609ZM930.9207,636.4329a13.129,13.129,0,0,1-13.1138-13.114V416.1082a13.1289,13.1289,0,0,1,13.1138-13.114h22.2475V636.4329Zm30.2712-233.4387h44.1594V636.4329H961.1919Zm417.4714,233.4387V402.9942h44.1592V636.4329Zm86.9615-13.114a13.1291,13.1291,0,0,1-13.1141,13.114h-21.6643V402.9942h21.6643a13.129,13.129,0,0,1,13.1141,13.114Z"/><path class="cls-4" d="M252.3861,394.9706h-521.59a25.9819,25.9819,0,0,0-25.9519,25.952v207.211a25.9819,25.9819,0,0,0,25.9519,25.9521h22.2476v82.2627h8.0237V654.0857H222.6979v82.2627h8.0239V654.0857h21.6643a25.9819,25.9819,0,0,0,25.9522-25.9521V420.9226A25.982,25.982,0,0,0,252.3861,394.9706Zm-386.9509,12.8381h44.1592V641.2476h-44.1592Zm-8.0239,233.4389h-44.1607V407.8087h44.1607Zm60.207-233.4389h44.1609V641.2476H-82.3817Zm52.1848,0H13.9623V641.2476H-30.1969Zm52.1831,0H66.1471V641.2476H21.9862Zm52.1846,0H118.33V641.2476H74.1708Zm52.1833,0h44.1607V641.2476H126.3541ZM-269.204,641.2476a13.129,13.129,0,0,1-13.1137-13.114V420.9226a13.129,13.129,0,0,1,13.1137-13.1139h22.2476V641.2476Zm30.2713-233.4389h44.1594V641.2476h-44.1594ZM178.5387,641.2476V407.8087h44.1592V641.2476ZM265.5,628.1336a13.1291,13.1291,0,0,1-13.114,13.114H230.7218V407.8087h21.6643A13.1291,13.1291,0,0,1,265.5,420.9226Z"/><path class="cls-5" d="M289.7936,445.0388H273.3754V416.1082a25.982,25.982,0,0,0-25.9522-25.9522h-521.59a25.9821,25.9821,0,0,0-25.9521,25.9522V623.3189a25.982,25.982,0,0,0,25.9521,25.9521h22.2476v87.0774h8.0237V649.271H217.735v87.0774h8.0239V649.271h21.6643a25.9819,25.9819,0,0,0,25.9522-25.9521v-51.54h16.4182v19.0953h10.66V559.6548H273.3754V457.163h16.4182v19.0953h10.66v-31.22Zm-429.3213-42.0446h44.1592V636.4329h-44.1592Zm-8.0239,233.4387h-44.1609V402.9942h44.1609Zm60.207-233.4387h44.1609V636.4329H-87.3446Zm52.1846,0H8.9994V636.4329H-35.16Zm52.1831,0H61.1842V636.4329H17.0231Zm52.1848,0h44.1594V636.4329H69.2079Zm52.1831,0h44.1609V636.4329H121.391ZM-274.1669,636.4329a13.129,13.129,0,0,1-13.1137-13.114V416.1082a13.1289,13.1289,0,0,1,13.1137-13.114h22.2476V636.4329Zm30.2713-233.4387h44.1594V636.4329h-44.1594ZM173.5758,636.4329V402.9942H217.735V636.4329Zm86.9614-13.114a13.129,13.129,0,0,1-13.114,13.114H225.7589V402.9942h21.6643a13.129,13.129,0,0,1,13.114,13.114Z"/></g><rect class="cls-4" x="287.5244" y="458.0397" width="16.8445" height="33.1674"/><rect class="cls-4" x="287.5244" y="572.6557" width="16.8445" height="33.1673"/><rect class="cls-5" x="459.0533" y="469.2579" width="260.8981" height="89.4586"/><path class="cls-7" d="M496.22,510.3613v6.8819H485.8291v14.1074h13.0752v6.8818h-20.645V490.0605h20.645v6.8819H485.8291v13.4189Z"/><path class="cls-7" d="M518.7231,532.3145v-7.57c0-4.4726-1.5136-6.125-4.9541-6.125h-2.6152v19.6133h-7.57V490.0605h11.4238c7.8448,0,11.2168,3.6475,11.2168,11.0791v3.7852c0,4.9551-1.582,8.1895-4.9541,9.7725,3.7852,1.582,5.0235,5.2295,5.0235,10.2539v7.4316a14.1727,14.1727,0,0,0,.8261,5.85h-7.708C518.9985,536.9941,518.7231,536.2363,518.7231,532.3145Zm-7.5693-20.5762h2.959c2.8213,0,4.542-1.2393,4.542-5.0928v-4.749c0-3.44-1.17-4.9541-3.8535-4.9541h-3.6475Z"/><path class="cls-7" d="M546.3882,532.3145v-7.57c0-4.4726-1.5137-6.125-4.9551-6.125h-2.6152v19.6133h-7.5694V490.0605h11.4239c7.8447,0,11.2168,3.6475,11.2168,11.0791v3.7852c0,4.9551-1.583,8.1895-4.9551,9.7725,3.7851,1.582,5.0234,5.2295,5.0234,10.2539v7.4316a14.1892,14.1892,0,0,0,.8262,5.85h-7.707C546.6636,536.9941,546.3882,536.2363,546.3882,532.3145Zm-7.57-20.5762h2.959c2.8222,0,4.5419-1.2393,4.5419-5.0928v-4.749c0-3.44-1.17-4.9541-3.8535-4.9541h-3.6474Z"/><path class="cls-7" d="M569.7856,489.51c7.4317,0,11.4922,4.4043,11.4922,12.1123v25.0488c0,7.708-4.06,12.1123-11.4922,12.1123s-11.4921-4.4043-11.4921-12.1123V501.6221C558.2935,493.9141,562.353,489.51,569.7856,489.51Zm0,42.3916c2.4082,0,3.9229-1.3076,3.9229-4.7481V501.14c0-3.44-1.5147-4.748-3.9229-4.748s-3.9228,1.3076-3.9228,4.748v26.0137C565.8628,530.5938,567.3765,531.9014,569.7856,531.9014Z"/><path class="cls-7" d="M601.3047,532.3145v-7.57c0-4.4726-1.5137-6.125-4.9551-6.125h-2.6157v19.6133h-7.5693V490.0605h11.4243c7.8447,0,11.2168,3.6475,11.2168,11.0791v3.7852c0,4.9551-1.583,8.1895-4.9551,9.7725,3.7851,1.582,5.0234,5.2295,5.0234,10.2539v7.4316a14.1892,14.1892,0,0,0,.8262,5.85h-7.707C601.58,536.9941,601.3047,536.2363,601.3047,532.3145Zm-7.5708-20.5762h2.96c2.8222,0,4.542-1.2393,4.542-5.0928v-4.749c0-3.44-1.17-4.9541-3.8536-4.9541h-3.6479Z"/><path class="cls-7" d="M631.3086,527.1533c0,3.4405,1.5137,4.6787,3.9228,4.6787s3.9229-1.2382,3.9229-4.6787V516.5547c0-3.44-1.5147-4.7481-3.9229-4.7481s-3.9228,1.3077-3.9228,4.7481V518h-7.1572l1.3769-27.94h19.9571v6.8819H632.3408l-.6191,11.4922a7.2218,7.2218,0,0,1,6.6064-3.51c5.5742,0,8.3955,3.9229,8.3955,11.0107v10.7354c0,7.708-3.8535,12.1123-11.2861,12.1123s-11.2861-4.4043-11.2861-12.1123V522.68h7.1572Z"/><path class="cls-7" d="M662.62,489.51c7.4317,0,11.4922,4.4043,11.4922,12.1123v25.0488c0,7.708-4.0605,12.1123-11.4922,12.1123s-11.4922-4.4043-11.4922-12.1123V501.6221C651.1279,493.9141,655.1875,489.51,662.62,489.51Zm0,42.3916c2.4082,0,3.9229-1.3076,3.9229-4.7481V501.14c0-3.44-1.5147-4.748-3.9229-4.748s-3.9228,1.3076-3.9228,4.748v26.0137C658.6973,530.5938,660.2109,531.9014,662.62,531.9014Z"/><path class="cls-7" d="M689.8721,489.51c7.4316,0,11.4922,4.4043,11.4922,12.1123v25.0488c0,7.708-4.0606,12.1123-11.4922,12.1123S678.38,534.3789,678.38,526.6709V501.6221C678.38,493.9141,682.44,489.51,689.8721,489.51Zm0,42.3916c2.4082,0,3.9228-1.3076,3.9228-4.7481V501.14c0-3.44-1.5146-4.748-3.9228-4.748s-3.9229,1.3076-3.9229,4.748v26.0137C685.9492,530.5938,687.4629,531.9014,689.8721,531.9014Z"/><path class="cls-8" d="M291.666,266.4941l2.1939-4.9248a18.9039,18.9039,0,0,0,11.2612,3.7539c5.314,0,7.5566-1.9013,7.5566-4.4355,0-7.3623-20.2807-2.5352-20.2807-15.2109,0-5.5088,4.3877-10.1895,13.748-10.1895a21.5838,21.5838,0,0,1,11.3594,3.0225l-1.999,4.9238a18.9638,18.9638,0,0,0-9.4092-2.6807c-5.2651,0-7.41,2.0479-7.41,4.6309,0,7.2646,20.232,2.5351,20.232,15.0644,0,5.46-4.4366,10.1407-13.7969,10.1407C299.8071,270.5889,294.4932,268.9316,291.666,266.4941Z"/><path class="cls-8" d="M322.478,257.085c0-7.8008,5.85-13.31,13.8457-13.31,8.0928,0,13.8941,5.5088,13.8941,13.31s-5.8013,13.3574-13.8941,13.3574C328.3281,270.4424,322.478,264.8848,322.478,257.085Zm21.5972,0c0-4.9727-3.3154-8.1416-7.7515-8.1416-4.3877,0-7.7031,3.1689-7.7031,8.1416s3.3154,8.1416,7.7031,8.1416C340.76,265.2266,344.0752,262.0576,344.0752,257.085Z"/><path class="cls-8" d="M399.6045,255.1836v14.918H393.51V255.9629c0-4.6309-2.1451-6.874-5.85-6.874-3.9976,0-6.7764,2.6328-6.7764,7.8007v13.212H374.79V255.9629c0-4.6309-2.1451-6.874-5.85-6.874-4.0464,0-6.7764,2.6328-6.7764,7.8007v13.212h-6.0943V244.0674h5.8018v3.3154a10.7829,10.7829,0,0,1,8.5313-3.6074c3.8027,0,6.9716,1.4141,8.7753,4.3389a12.15,12.15,0,0,1,9.75-4.3389C395.2168,243.7754,399.6045,247.334,399.6045,255.1836Z"/><path class="cls-8" d="M432.0254,259.0342H411.5986c.731,3.8027,3.9,6.24,8.4341,6.24a9.3293,9.3293,0,0,0,7.0689-2.8271l3.2661,3.7539c-2.34,2.7793-5.9961,4.2412-10.4815,4.2412-8.7265,0-14.3818-5.6065-14.3818-13.3574s5.7041-13.31,13.4556-13.31c7.6054,0,13.163,5.3135,13.163,13.4551C432.123,257.7188,432.0742,258.4492,432.0254,259.0342ZM411.55,254.9883h14.7715A7.0867,7.0867,0,0,0,418.96,248.65,7.195,7.195,0,0,0,411.55,254.9883Z"/><path class="cls-8" d="M453.623,268.6875a9.5757,9.5757,0,0,1-5.85,1.7549c-5.7041,0-8.97-3.0225-8.97-8.7754V249.1377h-4.2905v-4.875h4.2905v-5.9473h6.0938v5.9473h6.9717v4.875h-6.9717v12.3838c0,2.5342,1.2676,3.8994,3.6074,3.8994a5.4779,5.4779,0,0,0,3.4126-1.0723Z"/><path class="cls-8" d="M484.2886,255.1836v14.918h-6.0938V255.9629c0-4.6309-2.2915-6.874-6.1919-6.874-4.3388,0-7.2636,2.6328-7.2636,7.85v13.1631H458.645V233.9277h6.0943v13.1631a11.6024,11.6024,0,0,1,8.6777-3.3154C479.6572,243.7754,484.2886,247.334,484.2886,255.1836Z"/><path class="cls-8" d="M491.2129,236.1211a3.7117,3.7117,0,0,1,3.9-3.6563,3.6291,3.6291,0,0,1,3.9,3.51,3.9048,3.9048,0,0,1-7.8.1465Zm.8286,7.9463h6.0942v26.0342h-6.0942Z"/><path class="cls-8" d="M531.7739,255.1836v14.918H525.68V255.9629c0-4.6309-2.2915-6.874-6.1919-6.874-4.3389,0-7.2637,2.6328-7.2637,7.85v13.1631H506.13V244.0674h5.8017v3.3642c1.9986-2.3886,5.1675-3.6562,8.97-3.6562C527.1426,243.7754,531.7739,247.334,531.7739,255.1836Z"/><path class="cls-8" d="M565.6084,244.0674v22.0849c0,9.4581-4.9238,13.7481-14.04,13.7481-4.875,0-9.7017-1.2676-12.6753-3.7051l2.73-4.583a15.7257,15.7257,0,0,0,9.604,3.12c5.7529,0,8.288-2.6318,8.288-7.8974V265.47a11.46,11.46,0,0,1-8.7265,3.4619c-7.459,0-13.1631-5.07-13.1631-12.6269s5.7041-12.5293,13.1631-12.5293c3.6562,0,6.874,1.17,9.019,3.7539v-3.4619Zm-5.9961,12.2373c0-4.3877-3.3154-7.3613-7.8979-7.3613-4.6314,0-7.9468,2.9736-7.9468,7.3613,0,4.4365,3.3154,7.459,7.9468,7.459C556.2969,263.7637,559.6123,260.7412,559.6123,256.3047Z"/><path class="cls-8" d="M627.67,244.0674l-9.6045,26.0342h-5.85l-6.7285-17.9405-6.8252,17.9405h-5.85l-9.5557-26.0342h5.753l6.874,19.209,7.166-19.209h5.1191L615.19,263.374l7.0683-19.3066Z"/><path class="cls-8" d="M655.5078,259.0342H635.0811c.7314,3.8027,3.9,6.24,8.4335,6.24a9.3289,9.3289,0,0,0,7.0694-2.8271l3.2666,3.7539c-2.34,2.7793-5.9961,4.2412-10.4815,4.2412-8.7265,0-14.3818-5.6065-14.3818-13.3574s5.7041-13.31,13.4551-13.31c7.6055,0,13.1631,5.3135,13.1631,13.4551C655.6055,257.7188,655.5566,258.4492,655.5078,259.0342Zm-20.4756-4.0459h14.7715a7.0864,7.0864,0,0,0-7.3613-6.3379A7.1953,7.1953,0,0,0,635.0322,254.9883Z"/><path class="cls-8" d="M687.1006,255.1836v14.918h-6.0938V255.9629c0-4.6309-2.292-6.874-6.1923-6.874-4.3389,0-7.2637,2.6328-7.2637,7.85v13.1631H661.457V244.0674h5.8018v3.3642c1.998-2.3886,5.167-3.6562,8.97-3.6562C682.4688,243.7754,687.1006,247.334,687.1006,255.1836Z"/><path class="cls-8" d="M710.502,268.6875a9.5747,9.5747,0,0,1-5.85,1.7549c-5.7041,0-8.9707-3.0225-8.9707-8.7754V249.1377h-4.29v-4.875h4.29v-5.9473h6.0938v5.9473h6.9717v4.875h-6.9717v12.3838c0,2.5342,1.2676,3.8994,3.6074,3.8994a5.48,5.48,0,0,0,3.4131-1.0723Z"/><path class="cls-8" d="M769.59,244.0674l-9.6035,26.0342h-5.8506l-6.7275-17.9405-6.8252,17.9405h-5.8506l-9.5556-26.0342H730.93l6.874,19.209,7.167-19.209H750.09l7.02,19.3066,7.0693-19.3066Z"/><path class="cls-8" d="M788.8486,243.7754v5.8017a7.7326,7.7326,0,0,0-1.414-.1464c-4.6319,0-7.5567,2.73-7.5567,8.0439v12.627h-6.0937V244.0674h5.8017V247.87C781.3408,245.1406,784.51,243.7754,788.8486,243.7754Z"/><path class="cls-8" d="M791.6279,257.085c0-7.8008,5.8506-13.31,13.8457-13.31,8.0928,0,13.8946,5.5088,13.8946,13.31s-5.8018,13.3574-13.8946,13.3574C797.4785,270.4424,791.6279,264.8848,791.6279,257.085Zm21.5977,0c0-4.9727-3.3154-8.1416-7.752-8.1416-4.3877,0-7.7031,3.1689-7.7031,8.1416s3.3154,8.1416,7.7031,8.1416C809.91,265.2266,813.2256,262.0576,813.2256,257.085Z"/><path class="cls-8" d="M850.8623,255.1836v14.918h-6.0937V255.9629c0-4.6309-2.292-6.874-6.1924-6.874-4.3389,0-7.2637,2.6328-7.2637,7.85v13.1631h-6.0937V244.0674h5.8017v3.3642c1.9981-2.3886,5.167-3.6562,8.97-3.6562C846.2305,243.7754,850.8623,247.334,850.8623,255.1836Z"/><path class="cls-8" d="M884.6963,244.0674v22.0849c0,9.4581-4.9238,13.7481-14.04,13.7481-4.875,0-9.7022-1.2676-12.6758-3.7051l2.73-4.583a15.7237,15.7237,0,0,0,9.6036,3.12c5.7529,0,8.288-2.6318,8.288-7.8974V265.47a11.4589,11.4589,0,0,1-8.7265,3.4619c-7.459,0-13.1631-5.07-13.1631-12.6269s5.7041-12.5293,13.1631-12.5293c3.6562,0,6.874,1.17,9.0195,3.7539v-3.4619ZM878.7,256.3047c0-4.3877-3.3154-7.3613-7.8975-7.3613-4.6318,0-7.9472,2.9736-7.9472,7.3613,0,4.4365,3.3154,7.459,7.9472,7.459C875.3848,263.7637,878.7,260.7412,878.7,256.3047Z"/><path class="cls-8" d="M890.6455,266.3965a3.9979,3.9979,0,1,1,7.9951,0,3.9978,3.9978,0,1,1-7.9951,0Z"/><path class="cls-8" d="M476.9321,174.7588c0-16.7959,13.0811-29.2315,30.9268-29.2315,17.7651,0,30.9272,12.3545,30.9272,29.2315S525.624,203.99,507.8589,203.99C490.0132,203.99,476.9321,191.5547,476.9321,174.7588Zm48.6109,0c0-10.74-7.59-18.0879-17.6841-18.0879s-17.6841,7.3481-17.6841,18.0879,7.59,18.0879,17.6841,18.0879S525.543,185.4985,525.543,174.7588Z"/><path class="cls-8" d="M544.5225,181.2993c0-13.0815,10.0937-22.3677,23.9018-22.3677s23.8213,9.2862,23.8213,22.3677-10.0132,22.3677-23.8213,22.3677S544.5225,194.3809,544.5225,181.2993Zm34.9643,0c0-7.51-4.7641-12.0317-11.0625-12.0317s-11.1435,4.522-11.1435,12.0317,4.8452,12.0318,11.1435,12.0318S579.4868,188.8091,579.4868,181.2993Z"/><path class="cls-8" d="M647.9648,181.2993c0,13.6465-9.4472,22.3677-21.6406,22.3677-5.41,0-9.8515-1.6958-13.082-5.2485v20.268H600.6455V159.5776h12.0322v5.0069c3.1485-3.7954,7.8321-5.6529,13.6465-5.6529C638.5176,158.9316,647.9648,167.6528,647.9648,181.2993Zm-12.7587,0c0-7.51-4.7637-12.0317-11.0625-12.0317s-11.0625,4.522-11.0625,12.0317,4.7646,12.0318,11.0625,12.0318S635.2061,188.8091,635.2061,181.2993Z"/><path class="cls-8" d="M652.166,198.9834l4.1992-9.0439a29.72,29.72,0,0,0,15.1,4.1992c5.8145,0,7.9942-1.5342,7.9942-3.9571,0-7.1059-26.2432.1617-26.2432-17.2,0-8.2363,7.4287-14.05,20.1065-14.05,5.9756,0,12.5966,1.3731,16.7148,3.7955l-4.1982,8.9628a24.9512,24.9512,0,0,0-12.5166-3.23c-5.6524,0-8.0752,1.7764-8.0752,4.0372,0,7.4292,26.2441.2421,26.2441,17.3613,0,8.0747-7.51,13.8081-20.5107,13.8081C663.6328,203.667,656.2031,201.6484,652.166,198.9834Z"/><path class="cls-8" d="M697.3867,196.3188c0-4.1181,3.2305-7.1865,7.752-7.1865s7.7519,3.0684,7.7519,7.1865a7.763,7.763,0,0,1-15.5039,0Zm.2422-49.8222h15.0195l-2.5029,36.9023H700.1328Z"/><path class="cls-5" d="M339.312,341.8872l1.3613-3.0195a10.1938,10.1938,0,0,0,5.7173,1.8066c2.376,0,3.3413-.792,3.3413-1.8564,0-3.2422-10.0732-1.0147-10.0732-7.45,0-2.9449,2.376-5.3955,7.3013-5.3955a11.6237,11.6237,0,0,1,6.0141,1.5346l-1.2378,3.0445a9.7792,9.7792,0,0,0-4.8012-1.3614c-2.376,0-3.2915.8911-3.2915,1.98,0,3.1929,10.0727.99,10.0727,7.3506,0,2.896-2.4,5.3706-7.3506,5.3706A12.35,12.35,0,0,1,339.312,341.8872Z"/><path class="cls-5" d="M355.2036,336.937c0-4.0093,3.0938-6.8555,7.3262-6.8555s7.3008,2.8462,7.3008,6.8555-3.0689,6.856-7.3008,6.856S355.2036,340.9463,355.2036,336.937Zm10.7168,0a3.4141,3.4141,0,1,0-3.3906,3.688A3.36,3.36,0,0,0,365.92,336.937Z"/><path class="cls-5" d="M380.6738,330.0815v3.564c-.3217-.0249-.5693-.05-.8662-.05-2.1284,0-3.539,1.1636-3.539,3.7124v6.2866h-3.8609V330.2793h3.6875v1.7573A5.3729,5.3729,0,0,1,380.6738,330.0815Z"/><path class="cls-5" d="M391.2437,330.0815v3.564c-.3218-.0249-.5694-.05-.8663-.05-2.1284,0-3.539,1.1636-3.539,3.7124v6.2866h-3.8613V330.2793h3.6879v1.7573A5.3732,5.3732,0,0,1,391.2437,330.0815Z"/><path class="cls-5" d="M407.2344,330.2793,401.22,344.4116c-1.2871,3.2173-3.1186,4.1826-5.5195,4.1826a5.9132,5.9132,0,0,1-3.7124-1.2129l1.4106-2.747a3.4259,3.4259,0,0,0,2.1782.8413c1.064,0,1.6583-.47,2.1778-1.6582l.05-.1236-5.7671-13.4145h3.9849l3.7373,9.0337,3.7622-9.0337Z"/><path class="cls-5" d="M411.89,341.3672a5.7549,5.7549,0,0,1-.6684,2.4751l-1.4107,3.564h-2.45l1.0888-3.9351a2.1477,2.1477,0,0,1-1.3364-2.104,2.3884,2.3884,0,0,1,4.7768,0Z"/><path class="cls-5" d="M421.0483,326.27a2.207,2.207,0,0,1,2.4009-2.1533,2.1675,2.1675,0,0,1,2.4009,2.0791,2.4113,2.4113,0,0,1-4.8018.0742Zm.4707,4.0093H425.38v13.3154H421.519Z"/><path class="cls-5" d="M437.5576,342.9512a5.5169,5.5169,0,0,1-3.143.8418c-3.1436,0-4.9747-1.6089-4.9747-4.7769v-5.47h-2.0546v-2.97H429.44V327.334h3.8609v3.2422h3.3164v2.97h-3.3164v5.42a1.5528,1.5528,0,0,0,1.6582,1.7573,2.6017,2.6017,0,0,0,1.5591-.4951Z"/><path class="cls-5" d="M443.5981,327.4082a5.9941,5.9941,0,0,1-.6435,2.4751l-1.4356,3.564h-2.45l1.0645-3.91a2.1987,2.1987,0,0,1-1.312-2.1289,2.3884,2.3884,0,0,1,4.7768,0Z"/><path class="cls-5" d="M444.49,342.3574l1.2867-2.772a9.1136,9.1136,0,0,0,4.6284,1.2867c1.7822,0,2.45-.47,2.45-1.2124,0-2.1783-8.0435.0493-8.0435-5.272,0-2.5244,2.2769-4.3062,6.1626-4.3062a10.9471,10.9471,0,0,1,5.1231,1.1631l-1.2872,2.7471a7.647,7.647,0,0,0-3.8359-.99c-1.7324,0-2.4751.5444-2.4751,1.2373,0,2.2768,8.044.0742,8.044,5.3212,0,2.4751-2.3018,4.2325-6.2867,4.2325A11.4328,11.4328,0,0,1,444.49,342.3574Z"/><path class="cls-5" d="M488.4233,335.9717v7.623h-3.8608v-7.0288c0-2.1533-.9653-3.1435-2.5244-3.1435-1.7324,0-2.9453,1.1137-2.9453,3.49v6.6826h-3.8609v-7.0288c0-2.1533-.9155-3.1435-2.5244-3.1435-1.708,0-2.92,1.1137-2.92,3.49v6.6826h-3.8608V330.2793h3.6875v1.5347a5.3916,5.3916,0,0,1,4.1826-1.7325,4.97,4.97,0,0,1,4.3808,2.1778,5.9865,5.9865,0,0,1,4.8013-2.1778C486.1465,330.0815,488.4233,331.9131,488.4233,335.9717Z"/><path class="cls-5" d="M505.01,338.0259H494.937c.3711,1.6582,1.7818,2.6733,3.8115,2.6733a4.5147,4.5147,0,0,0,3.3413-1.2871l2.0542,2.2275a6.9744,6.9744,0,0,1-5.4946,2.1534c-4.6035,0-7.5981-2.896-7.5981-6.856a6.7787,6.7787,0,0,1,7.103-6.8555,6.5917,6.5917,0,0,1,6.93,6.9048C505.0845,337.2837,505.0347,337.7041,505.01,338.0259Zm-10.1226-2.252h6.5586a3.3257,3.3257,0,0,0-6.5586,0Z"/><path class="cls-5" d="M511.522,341.3672a5.754,5.754,0,0,1-.6685,2.4751l-1.4106,3.564h-2.45l1.0888-3.9351a2.1484,2.1484,0,0,1-1.3364-2.104,2.3885,2.3885,0,0,1,4.7769,0Z"/><path class="cls-5" d="M534.7637,335.9717v7.623h-3.8614v-7.0288c0-2.1533-.99-3.1435-2.6977-3.1435-1.856,0-3.1924,1.1386-3.1924,3.5888v6.5835h-3.8613V330.2793h3.688v1.5591a5.83,5.83,0,0,1,4.4052-1.7569C532.3877,330.0815,534.7637,331.9131,534.7637,335.9717Z"/><path class="cls-5" d="M537.4141,336.937c0-4.0093,3.0937-6.8555,7.3256-6.8555s7.3013,2.8462,7.3013,6.8555-3.0688,6.856-7.3013,6.856S537.4141,340.9463,537.4141,336.937Zm10.7168,0a3.4141,3.4141,0,1,0-3.3912,3.688A3.36,3.36,0,0,0,548.1309,336.937Z"/><path class="cls-5" d="M563.2061,342.9512a5.517,5.517,0,0,1-3.1431.8418c-3.1436,0-4.9746-1.6089-4.9746-4.7769v-5.47h-2.0547v-2.97h2.0547V327.334h3.8608v3.2422h3.3164v2.97h-3.3164v5.42a1.5529,1.5529,0,0,0,1.6582,1.7573,2.6015,2.6015,0,0,0,1.5591-.4951Z"/><path class="cls-5" d="M585.6069,330.2793l-6.0141,14.1323c-1.2871,3.2173-3.1187,4.1826-5.52,4.1826a5.9134,5.9134,0,0,1-3.7124-1.2129l1.4107-2.747a3.4244,3.4244,0,0,0,2.1782.8413c1.064,0,1.6582-.47,2.1777-1.6582l.05-.1236-5.7666-13.4145h3.9844l3.7373,9.0337,3.7617-9.0337Z"/><path class="cls-5" d="M585.8315,336.937c0-4.0093,3.0938-6.8555,7.3262-6.8555s7.3,2.8462,7.3,6.8555-3.0684,6.856-7.3,6.856S585.8315,340.9463,585.8315,336.937Zm10.7164,0a3.4139,3.4139,0,1,0-3.39,3.688A3.36,3.36,0,0,0,596.5479,336.937Z"/><path class="cls-5" d="M616.4492,330.2793v13.3154h-3.6631v-1.584a5.3864,5.3864,0,0,1-4.1328,1.7823c-3.3408,0-5.6924-1.8814-5.6924-5.99v-7.5239h3.8614v6.9546c0,2.2275.9892,3.2178,2.6972,3.2178,1.7823,0,3.0694-1.1387,3.0694-3.5889v-6.5835Z"/><path class="cls-5" d="M619.1006,341.3672a2.401,2.401,0,0,1,4.8017,0,2.401,2.401,0,1,1-4.8017,0Z"/><path class="cls-5" d="M633.8037,326.27h4.0088v14.0576H646.5v3.2671H633.8037Z"/><path class="cls-5" d="M661.3525,338.0259H651.2793c.3711,1.6582,1.7822,2.6733,3.8115,2.6733a4.5151,4.5151,0,0,0,3.3418-1.2871l2.0537,2.2275a6.9735,6.9735,0,0,1-5.4941,2.1534c-4.6035,0-7.5986-2.896-7.5986-6.856a6.7791,6.7791,0,0,1,7.1035-6.8555,6.5916,6.5916,0,0,1,6.93,6.9048C661.4268,337.2837,661.377,337.7041,661.3525,338.0259Zm-10.122-2.252h6.5586a3.3257,3.3257,0,0,0-6.5586,0Z"/><path class="cls-5" d="M672.5918,342.9512a5.5176,5.5176,0,0,1-3.1436.8418c-3.1435,0-4.9746-1.6089-4.9746-4.7769v-5.47h-2.0547v-2.97h2.0547V327.334h3.8614v3.2422h3.3164v2.97H668.335v5.42a1.5526,1.5526,0,0,0,1.6582,1.7573,2.6,2.6,0,0,0,1.5586-.4951Z"/><path class="cls-5" d="M704.2734,335.9717v7.623h-3.8613v-7.0288c0-2.1533-.9648-3.1435-2.5244-3.1435-1.7324,0-2.9453,1.1137-2.9453,3.49v6.6826h-3.86v-7.0288c0-2.1533-.916-3.1435-2.5244-3.1435-1.708,0-2.9209,1.1137-2.9209,3.49v6.6826h-3.8613V330.2793h3.6885v1.5347a5.39,5.39,0,0,1,4.1826-1.7325,4.97,4.97,0,0,1,4.3808,2.1778,5.984,5.984,0,0,1,4.8008-2.1778C701.9961,330.0815,704.2734,331.9131,704.2734,335.9717Z"/><path class="cls-5" d="M720.86,338.0259H710.7871c.3711,1.6582,1.7813,2.6733,3.8115,2.6733a4.5147,4.5147,0,0,0,3.3409-1.2871l2.0546,2.2275a6.9755,6.9755,0,0,1-5.4951,2.1534c-4.6035,0-7.5976-2.896-7.5976-6.856a6.7782,6.7782,0,0,1,7.1025-6.8555,6.5919,6.5919,0,0,1,6.9307,6.9048C720.9346,337.2837,720.8848,337.7041,720.86,338.0259Zm-10.1231-2.252h6.5586a3.3257,3.3257,0,0,0-6.5586,0Z"/><path class="cls-5" d="M739.1035,342.9512a5.5164,5.5164,0,0,1-3.1426.8418c-3.1435,0-4.9746-1.6089-4.9746-4.7769v-5.47h-2.0547v-2.97h2.0547V327.334h3.86v3.2422h3.3164v2.97h-3.3164v5.42a1.5531,1.5531,0,0,0,1.6582,1.7573,2.6032,2.6032,0,0,0,1.56-.4951Z"/><path class="cls-5" d="M749.55,330.0815v3.564c-.3223-.0249-.5693-.05-.8662-.05-2.1289,0-3.5391,1.1636-3.5391,3.7124v6.2866h-3.8613V330.2793h3.6875v1.7573A5.3733,5.3733,0,0,1,749.55,330.0815Z"/><path class="cls-5" d="M765.54,330.2793l-6.0146,14.1323c-1.2871,3.2173-3.1182,4.1826-5.5195,4.1826a5.9121,5.9121,0,0,1-3.712-1.2129l1.41-2.747a3.4268,3.4268,0,0,0,2.1787.8413c1.0635,0,1.6582-.47,2.1777-1.6582l.05-.1236-5.7676-13.4145h3.9853l3.7373,9.0337,3.7617-9.0337Z"/><path class="cls-5" d="M785.9121,335.9966v7.5981h-3.6142v-1.6582c-.7178,1.2129-2.1036,1.8565-4.0586,1.8565-3.1182,0-4.9747-1.7329-4.9747-4.0347,0-2.3511,1.6583-3.9844,5.7168-3.9844h3.0694c0-1.6582-.99-2.6235-3.0694-2.6235a6.4029,6.4029,0,0,0-3.8359,1.2373L773.76,331.69a10.2343,10.2343,0,0,1,5.7422-1.6084C783.5605,330.0815,785.9121,331.9624,785.9121,335.9966Zm-3.8613,3.3906v-1.3613h-2.6485c-1.8066,0-2.3759.6684-2.3759,1.56,0,.9649.8174,1.6084,2.1777,1.6084A2.8449,2.8449,0,0,0,782.0508,339.3872Z"/><path class="cls-5" d="M803.2881,330.2793v11.0879c0,4.95-2.6729,7.227-7.4746,7.227a10.9645,10.9645,0,0,1-6.5332-1.8315l1.5342-2.772a7.96,7.96,0,0,0,4.7021,1.51c2.7227,0,3.9111-1.2373,3.9111-3.6382v-.5693a5.4829,5.4829,0,0,1-4.208,1.6582,6.4386,6.4386,0,1,1,0-12.87,5.3437,5.3437,0,0,1,4.4053,1.9058v-1.708Zm-3.8115,6.2368a3.51,3.51,0,1,0-3.4893,3.2671A3.2328,3.2328,0,0,0,799.4766,336.5161Z"/><path class="cls-5" d="M818.6611,335.9966v7.5981h-3.6142v-1.6582c-.7178,1.2129-2.1035,1.8565-4.0586,1.8565-3.1182,0-4.9746-1.7329-4.9746-4.0347,0-2.3511,1.6582-3.9844,5.7168-3.9844H814.8c0-1.6582-.99-2.6235-3.0693-2.6235a6.403,6.403,0,0,0-3.836,1.2373l-1.3857-2.6978a10.2347,10.2347,0,0,1,5.7422-1.6084C816.31,330.0815,818.6611,331.9624,818.6611,335.9966ZM814.8,339.3872v-1.3613h-2.6484c-1.8067,0-2.376.6684-2.376,1.56,0,.9649.8174,1.6084,2.1777,1.6084A2.8449,2.8449,0,0,0,814.8,339.3872Z"/><path class="cls-5" d="M821.6826,326.27a2.2065,2.2065,0,0,1,2.4-2.1533,2.168,2.168,0,0,1,2.4014,2.0791,2.4113,2.4113,0,0,1-4.8018.0742Zm.47,4.0093h3.8614v13.3154h-3.8614Z"/><path class="cls-5" d="M843.2158,335.9717v7.623h-3.8613v-7.0288c0-2.1533-.9893-3.1435-2.6973-3.1435-1.8564,0-3.1924,1.1386-3.1924,3.5888v6.5835h-3.8613V330.2793h3.6875v1.5591a5.831,5.831,0,0,1,4.4053-1.7569C840.84,330.0815,843.2158,331.9131,843.2158,335.9717Z"/><line class="cls-9" x1="128.0046" y1="737.2962" x2="179.715" y2="737.2962"/><line class="cls-9" x1="195.5331" y1="737.2962" x2="215.8229" y2="737.2962"/><line class="cls-9" x1="222.4755" y1="737.2962" x2="1062.5454" y2="737.2962"/><path class="cls-10" d="M469.6257,736.44h-115.63l41.3959-208.27c1.86-9.36,8.6373-15.9393,16.4189-15.9393h0c7.7815,0,14.5585,6.579,16.419,15.9393Z"/><rect class="cls-11" x="336.09" y="722.2929" width="151.4415" height="15.0033"/><path class="cls-11" d="M395.96,736.118h73.6013L428.23,528.1706c-1.8605-9.36-8.6375-15.9393-16.4191-15.9393h0c-.1753,0-.3476.0208-.5217.0275Z"/><rect class="cls-10" x="336.09" y="722.2929" width="77.4823" height="15.0033"/><polygon class="cls-7" points="436.028 567.403 387.594 567.403 382.961 590.712 440.66 590.712 436.028 567.403"/><polygon class="cls-7" points="371.569 648.023 452.052 648.023 442.214 598.528 381.407 598.528 371.569 648.023"/><path class="cls-12" d="M407.2669,524.0064h-3.399a4.0965,4.0965,0,0,0-4.0385,3.41L375.5049,670.4246h7.345Z"/><polygon class="cls-12" points="374.234 677.894 369.687 704.628 377.146 704.628 381.604 677.894 374.234 677.894"/><polygon class="cls-13" points="438.652 580.607 436.028 567.403 407.513 567.403 405.917 590.712 440.66 590.712 438.652 580.607"/><polygon class="cls-13" points="442.214 598.528 405.382 598.528 401.993 648.023 452.052 648.023 442.214 598.528"/><path class="cls-10" d="M144.6354,715.6548l33.9155-110.5441L365.5183,705.7736c8.4029,4.5241,12.7048,12.9326,10.4223,20.372h0c-2.2824,7.4392-10.56,11.9885-20.0541,11.0216Z"/><rect class="cls-11" x="92.2257" y="654.8303" width="151.4414" height="15.0034" transform="translate(850.4077 696.0414) rotate(107.0563)"/><path class="cls-11" d="M166.55,645.324l-21.588,70.3642,210.9243,21.4791c9.4944.9668,17.7718-3.5824,20.0542-11.0217h0c.0514-.1676.082-.3384.1267-.5069Z"/><rect class="cls-10" x="140.0518" y="619.4772" width="77.4822" height="15.0034" transform="translate(830.6374 639.9497) rotate(107.0563)"/><polygon class="cls-7" points="316.092 733.115 330.298 686.811 309.374 675.545 292.45 730.707 316.092 733.115"/><polygon class="cls-7" points="257.924 647.845 234.318 724.787 284.522 729.9 302.357 671.768 257.924 647.845"/><path class="cls-12" d="M366.0162,718.3479l.997-3.25a4.0966,4.0966,0,0,0-2.0751-4.8609L235.354,645.0368l-2.1544,7.022Z"/><polygon class="cls-12" points="228.586 641.631 204.361 629.443 202.173 636.574 226.424 648.677 228.586 641.631"/><polygon class="cls-13" points="302.699 731.751 316.092 733.115 324.456 705.854 302.64 697.492 292.45 730.707 302.699 731.751"/><polygon class="cls-13" points="284.522 729.9 295.325 694.688 249.001 676.93 234.318 724.788 284.522 729.9"/><path class="cls-7" d="M765.8508,702.5735a205.6654,205.6654,0,0,0,.3832-44.3577c-2.8053-26.905-10.4813-59.3581-31.5558-86.0539-2.2346-2.8308-4.84-5.7422-7.3138-6.5162-5.7449-1.7956-6.4659,6.92-6.2324,12.5522.8041,19.3986,11.605,43.03,20.159,64.0866,9.6448,23.7425,19.7252,48.0043,23.2973,70.765Z"/><path class="cls-14" d="M764.6431,713.5a1.0169,1.0169,0,0,1-1.0976-.9011c-.1019-16.13-2.9253-34.2108-8.3929-53.74-5.1859-18.5243-10.795-37.3627-16.6721-55.9923a.9054.9054,0,0,1,.7856-1.1045,1.1635,1.1635,0,0,1,1.3389.6482c7.387,19.2384,11.4959,37.5006,16.6871,56.0419,5.5031,19.6589,8.3457,37.8738,8.4485,54.1378a1.0132,1.0132,0,0,1-1.0922.91Z"/><path class="cls-15" d="M777.4222,706.0609a261.62,261.62,0,0,1,2.2-50.8955c4.4788-30.7363,14.3247-67.6215,37.703-97.3116,2.479-3.1482,5.3468-6.3726,7.9528-7.1511,6.0519-1.8058,6.2879,8.2223,5.7165,14.6726-1.968,22.215-14.5322,48.8435-24.62,72.618-11.3739,26.8071-23.2292,54.1905-28.2593,80.1394Z"/><path class="cls-16" d="M778.0862,718.6716c-.02,0-.0409,0-.0614-.0011a1.1059,1.1059,0,0,1-1.1026-1.1181c1.06-18.6539,5.0689-39.4226,11.9169-61.7284,6.4581-21.0357,13.3742-42.4155,20.5553-63.5438a1.1877,1.1877,0,0,1,1.4574-.7,1.0505,1.0505,0,0,1,.7662,1.3323c-7.1754,21.11-14.0848,42.47-20.5372,63.4877-6.8013,22.1539-10.7835,42.7658-11.8328,61.2627A1.1247,1.1247,0,0,1,778.0862,718.6716Z"/><path class="cls-16" d="M772.0486,687.2085a302.18,302.18,0,0,1-10.1961-59.791c-2.3469-36.75.244-81.76,21.0211-121.136,2.203-4.1752,4.8572-8.5185,7.8124-9.9566,6.8639-3.3374,9.6829,8.3073,10.6211,15.9444,3.2315,26.3028-5.2385,59.908-11.4337,89.6816-6.9854,33.5711-14.4073,67.9123-13.9363,99.1919Z"/><path class="cls-15" d="M775.7672,701.4779a1.0313,1.0313,0,0,1-1.0556-.8118c-3.4285-21.9448-3.8256-46.9523-1.1786-74.329,2.4937-25.82,5.4575-52.1529,8.8079-78.265a1.0448,1.0448,0,0,1,1.1806-.8293.977.977,0,0,1,.941,1.0405c-3.3482,26.0948-6.3109,52.41-8.8037,78.2135-2.6323,27.2382-2.24,52.106,1.1661,73.9121a.9671.9671,0,0,1-.9107,1.06A1.1568,1.1568,0,0,1,775.7672,701.4779Z"/><rect class="cls-17" x="738.9622" y="687.2085" width="65.9015" height="50.0061"/><rect class="cls-18" x="738.9622" y="687.1148" width="65.9015" height="9.9425"/><path class="cls-17" d="M737.4187,665.815h68.9882a2.9437,2.9437,0,0,1,2.9437,2.9437V688.917a2.9437,2.9437,0,0,1-2.9437,2.9437H737.4188a2.9436,2.9436,0,0,1-2.9436-2.9436V668.7585A2.9435,2.9435,0,0,1,737.4187,665.815Z"/><rect class="cls-19" x="761.345" y="687.2085" width="43.5187" height="50.0061"/><rect class="cls-20" x="761.345" y="687.1148" width="43.5187" height="9.9425"/><path class="cls-19" d="M759.8015,665.815h46.6054a2.9437,2.9437,0,0,1,2.9437,2.9437V688.917a2.9437,2.9437,0,0,1-2.9437,2.9437H759.8016a2.9436,2.9436,0,0,1-2.9436-2.9436V668.7585A2.9435,2.9435,0,0,1,759.8015,665.815Z"/><rect class="cls-21" x="742.8319" y="694.6901" width="5.0927" height="39.6951"/><path class="cls-21" d="M741.4557,667.724h.5512a2.3713,2.3713,0,0,1,2.3713,2.3713V687.58a2.3713,2.3713,0,0,1-2.3713,2.3713h-.5512a2.3712,2.3712,0,0,1-2.3712-2.3712V670.0952A2.3712,2.3712,0,0,1,741.4557,667.724Z"/><path class="cls-22" d="M958.4355,135.6834l-8.4668,5.9417a38.0468,38.0468,0,0,0-11.6625-7.4045l1.7868-10.1957a3.4717,3.4717,0,0,0-2.8206-4.0193L928.3,118.4331a3.4723,3.4723,0,0,0-4.0194,2.8207l-1.7868,10.1956a38.0493,38.0493,0,0,0-13.4854,2.9974L903.067,125.98a3.4722,3.4722,0,0,0-4.8366-.8477l-7.4562,5.2325a3.4723,3.4723,0,0,0-.8476,4.8367l5.9417,8.4667a38.0483,38.0483,0,0,0-7.4046,11.6625l-10.1956-1.7869a3.4724,3.4724,0,0,0-4.0194,2.8207l-1.5725,8.9722a3.4723,3.4723,0,0,0,2.8207,4.0194l10.1958,1.7868a38.05,38.05,0,0,0,2.9972,13.4854l-8.4667,5.9416a3.4721,3.4721,0,0,0-.8477,4.8366l5.2325,7.4563a3.4722,3.4722,0,0,0,4.8367.8475l8.4666-5.9416a38.0484,38.0484,0,0,0,11.6624,7.4044l-1.7868,10.1958a3.4724,3.4724,0,0,0,2.8207,4.0194l8.9723,1.5723a3.472,3.472,0,0,0,4.0194-2.8206l1.7867-10.1957a38.0471,38.0471,0,0,0,13.4854-2.9974l5.9417,8.4669a3.4722,3.4722,0,0,0,4.8366.8476l7.4562-5.2325a3.4722,3.4722,0,0,0,.8476-4.8366l-5.9417-8.4669a38.0463,38.0463,0,0,0,7.4044-11.6623L969.612,185.85a3.4721,3.4721,0,0,0,4.0194-2.8207l1.5724-8.9722a3.472,3.472,0,0,0-2.8207-4.0194l-10.1957-1.7868a38.0473,38.0473,0,0,0-2.9972-13.4854l8.4668-5.9416a3.4721,3.4721,0,0,0,.8476-4.8366l-5.2325-7.4562A3.4721,3.4721,0,0,0,958.4355,135.6834Zm-23.801,49.2529a18.6175,18.6175,0,1,1,4.5449-25.9338A18.6175,18.6175,0,0,1,934.6345,184.9363Z"/><path class="cls-22" d="M1030.1826,201.7058l-7.8989,1.6664a29.6983,29.6983,0,0,0-6.0978-8.8916l4.41-6.7686a2.71,2.71,0,0,0-.7911-3.75l-5.9564-3.8809a2.71,2.71,0,0,0-3.75.7911l-4.41,6.7686a29.699,29.699,0,0,0-10.5972-1.9861l-1.6665-7.899a2.71,2.71,0,0,0-3.2108-2.0921l-6.9562,1.4676a2.71,2.71,0,0,0-2.092,3.2109l1.6664,7.8989a29.6964,29.6964,0,0,0-8.8916,6.0978l-6.7685-4.41a2.71,2.71,0,0,0-3.75.7911l-3.8811,5.9564a2.71,2.71,0,0,0,.7911,3.75l6.7688,4.41a29.6943,29.6943,0,0,0-1.9863,10.5971L957.2161,217.1a2.71,2.71,0,0,0-2.092,3.2109l1.4675,6.9561a2.71,2.71,0,0,0,3.2109,2.0921l7.8989-1.6665a29.6921,29.6921,0,0,0,6.0978,8.8916l-4.41,6.7687a2.71,2.71,0,0,0,.7911,3.75l5.9565,3.8811a2.71,2.71,0,0,0,3.75-.7912l4.41-6.7686a29.6969,29.6969,0,0,0,10.5972,1.9861l1.6665,7.8989a2.71,2.71,0,0,0,3.2108,2.0921l6.9561-1.4675a2.71,2.71,0,0,0,2.0921-3.2109l-1.6665-7.8989a29.6955,29.6955,0,0,0,8.8916-6.0979l6.7686,4.41a2.71,2.71,0,0,0,3.75-.7911l3.8809-5.9564a2.71,2.71,0,0,0-.7911-3.75l-6.7687-4.41a29.6948,29.6948,0,0,0,1.9863-10.5972l7.8989-1.6664a2.71,2.71,0,0,0,2.092-3.2109l-1.4676-6.9561A2.71,2.71,0,0,0,1030.1826,201.7058ZM997.9921,229.75a14.53,14.53,0,1,1,11.2176-17.2167A14.53,14.53,0,0,1,997.9921,229.75Z"/></svg>